<?xml version="1.0" encoding="UTF-8"?>
<svg version="1.1" xmlns="http://www.w3.org/2000/svg" width="512" height="512">
<path d="M0 0 C7.06062499 4.97671237 12.41707223 11.8648647 14.01171875 20.41796875 C14.05765161 22.16091202 14.07039451 23.90495984 14.0546875 25.6484375 C14.04848389 26.54328857 14.04228027 27.43813965 14.03588867 28.36010742 C14.0279126 29.03920166 14.01993652 29.7182959 14.01171875 30.41796875 C30.09387436 38.97902387 46.28752675 47.30301782 62.75317383 55.10534668 C77.88939011 62.27961611 92.8497685 69.79909762 107.81359863 77.32409668 C111.98258706 79.4203198 116.15290528 81.51387458 120.32421875 83.60546875 C121.47788437 84.18438873 122.63154999 84.76330872 123.82017517 85.35977173 C132.31280835 89.60644525 140.85806773 93.73302898 149.47351074 97.72509766 C154.56284806 100.11472077 159.30393696 102.75906547 164.02757263 105.80789185 C175.82480821 113.39018968 189.49074811 112.43594908 203.01342773 112.22119141 C219.51142241 111.99435561 219.51142241 111.99435561 226.01171875 116.41796875 C226.63618896 116.82595703 227.26065918 117.23394531 227.90405273 117.65429688 C233.66810421 121.96313178 237.32917268 128.17066283 238.47199941 135.28217506 C238.65291576 138.48690271 238.67849992 141.6567561 238.64663696 144.86645508 C238.65443692 146.08484227 238.66223687 147.30322947 238.67027318 148.55853748 C238.6866834 151.91480721 238.68089223 155.2696637 238.66534209 158.62584543 C238.65397891 162.25511774 238.67151575 165.88427101 238.6852417 169.51351929 C238.70742599 176.61297539 238.70269451 183.71216657 238.68817849 190.81163287 C238.67686723 196.58364195 238.67536349 202.355577 238.68079758 208.12759399 C238.68194682 209.36181728 238.68194682 209.36181728 238.68311929 210.62097436 C238.68471798 212.29272773 238.68633905 213.96448108 238.68798225 215.6362344 C238.70222565 231.29685092 238.68586917 246.95732089 238.65898041 262.61791337 C238.63664289 276.0432005 238.64052342 289.46827145 238.66357422 302.89355469 C238.69035716 318.49972814 238.70085249 334.10577328 238.6855129 349.71196651 C238.68392023 351.37742549 238.68234837 353.04288449 238.68079758 354.70834351 C238.67964051 355.9373653 238.67964051 355.9373653 238.67846007 357.19121581 C238.67415054 362.95348725 238.68141347 368.71567701 238.69319534 374.47793579 C238.70724664 381.50428909 238.70336542 388.53036324 238.67679162 395.55668473 C238.66368849 399.13882059 238.65844035 402.72049177 238.67503738 406.30262375 C238.69278412 410.19183702 238.67153502 414.08029634 238.64663696 417.96948242 C238.65779057 419.0930354 238.66894418 420.21658838 238.68043578 421.37418842 C238.57802175 429.63561733 236.74152688 436.39023564 231.0220114 442.56660748 C223.46949997 449.73281333 216.62626024 450.86475078 206.5402832 450.82202148 C204.83663605 450.83231636 204.83663605 450.83231636 203.09857178 450.84281921 C199.35725286 450.86107055 195.61635373 450.85725327 191.875 450.8515625 C189.27141687 450.85612373 186.66783494 450.86142913 184.06425476 450.8674469 C178.6146545 450.87745886 173.16517307 450.87419243 167.71557617 450.86401367 C161.41865671 450.85251212 155.12216215 450.86664847 148.82529861 450.89341015 C142.75812976 450.91822807 136.69117985 450.92074806 130.62395287 450.91429329 C128.04549641 450.91413968 125.46703191 450.92021662 122.88860512 450.93258476 C119.29040206 450.94741827 115.69314365 450.93687432 112.0949707 450.91967773 C111.02631271 450.9293457 109.95765472 450.93901367 108.85661316 450.94897461 C101.68202346 450.87696693 101.68202346 450.87696693 98.3190155 448.57411194 C97.01171875 446.41796875 97.01171875 446.41796875 97.01171875 443.41796875 C92.06171875 443.41796875 87.11171875 443.41796875 82.01171875 443.41796875 C81.68171875 445.06796875 81.35171875 446.71796875 81.01171875 448.41796875 C77.61926962 450.67960151 76.46255369 450.67028744 72.48554134 450.67803097 C71.32924786 450.68509656 70.17295437 450.69216215 68.98162168 450.69944185 C67.70538657 450.69702677 66.42915146 450.69461168 65.11424255 450.69212341 C63.7493436 450.69657387 62.38444723 450.70188728 61.01955467 450.70799214 C57.26029654 450.7222065 53.50112094 450.72383478 49.74183977 450.72339523 C45.69052115 450.72504048 41.63923684 450.73810176 37.5879364 450.74958801 C28.72408944 450.77246263 19.86026639 450.78036169 10.99639392 450.78541446 C5.46160764 450.7886695 -0.07317168 450.79519092 -5.60795403 450.80241585 C-20.93157636 450.82198725 -36.25519222 450.83838754 -51.57882786 450.84129238 C-52.55995381 450.84147995 -53.54107976 450.84166752 -54.5519368 450.84186077 C-56.54095423 450.84222703 -58.52997166 450.84259073 -60.51898909 450.84295189 C-62.00002772 450.8432261 -62.00002772 450.8432261 -63.51098633 450.84350586 C-64.49955082 450.84368641 -65.48811532 450.84386696 -66.50663631 450.84405298 C-82.51733641 450.84759298 -98.52790186 450.87460209 -114.53855527 450.91200375 C-130.97586613 450.95009468 -147.41311022 450.96944993 -163.85046619 450.96975189 C-173.07958809 450.97033639 -182.30854951 450.97882298 -191.53763008 451.00774956 C-199.39854299 451.03227429 -207.25923693 451.0395392 -215.12017775 451.02450203 C-219.12960027 451.01733679 -223.13859053 451.01817333 -227.14796448 451.04091263 C-230.82294813 451.06155516 -234.49716867 451.05885407 -238.17214452 451.03803778 C-240.12211728 451.03290946 -242.07210773 451.05228235 -244.02198035 451.07269949 C-252.69258762 450.99010403 -259.63448575 449.45971136 -266.1316939 443.42818254 C-273.50086336 435.68471347 -274.43134998 428.67137992 -274.38269043 418.33024597 C-274.38878153 417.11442205 -274.39487264 415.89859813 -274.40114832 414.64593107 C-274.41489089 411.28321748 -274.41523761 407.92099359 -274.40977335 404.55828893 C-274.40709857 400.92693751 -274.4216434 397.2956481 -274.43386841 393.6643219 C-274.45490616 386.554495 -274.4594642 379.44474968 -274.45768052 372.33489534 C-274.45637199 366.55424524 -274.46018171 360.77362055 -274.46760559 354.99297523 C-274.46970483 353.32672749 -274.47180243 351.66047975 -274.47389841 349.994232 C-274.47494194 349.16484211 -274.47598547 348.33545221 -274.47706062 347.48092929 C-274.49595653 331.80034001 -274.49491487 316.11979752 -274.48809129 300.43920157 C-274.4825171 286.10357305 -274.5033371 271.76812331 -274.53645176 257.43253656 C-274.57021009 242.70366964 -274.58535437 227.97488831 -274.58073473 213.24598199 C-274.5784921 204.98048772 -274.58370281 196.71515866 -274.60862732 188.44969749 C-274.62966825 181.41231406 -274.63320496 174.3751864 -274.61432773 167.33779236 C-274.60518666 163.7495864 -274.6039759 160.16185698 -274.62468338 156.57368851 C-274.64691748 152.67777788 -274.63013477 148.78257512 -274.60974121 144.88664246 C-274.62225906 143.76104312 -274.63477691 142.63544378 -274.64767408 141.47573537 C-274.5549503 133.19998901 -272.70467781 126.49093535 -267.0278182 120.26940888 C-262.51121656 115.90668279 -257.22072402 112.75473574 -250.84217834 112.24720764 C-248.53770014 112.28934396 -246.25265278 112.41813491 -243.953125 112.57421875 C-218.18948661 113.63023815 -200.4613047 109.6158108 -178.13850403 96.95526123 C-168.07873083 91.25859581 -157.7040368 86.19138318 -147.34371376 81.07065773 C-143.29718788 79.07009337 -139.25967571 77.0523521 -135.22705078 75.02392578 C-124.05663959 69.40610566 -112.85006706 63.88715859 -101.55488586 58.52458191 C-89.44857281 52.76045118 -77.49584192 46.68737426 -65.52905273 40.64038086 C-62.50024194 39.11100469 -59.46904218 37.58645297 -56.4375 36.0625 C-55.51378098 35.59391068 -54.59006195 35.12532135 -53.63835144 34.64253235 C-52.79178482 34.21755966 -51.9452182 33.79258698 -51.07299805 33.35473633 C-49.95794136 32.79161491 -49.95794136 32.79161491 -48.82035828 32.21711731 C-46.98828125 31.41796875 -46.98828125 31.41796875 -44.98828125 31.41796875 C-45.19453125 30.28359375 -45.40078125 29.14921875 -45.61328125 27.98046875 C-46.48930959 20.67593833 -44.65101785 14.38873426 -40.53125 8.3359375 C-30.53462779 -4.09024353 -14.36090081 -8.47411833 0 0 Z M3.01171875 48.23046875 C-3.52274849 53.83712117 -10.51552055 55.00038645 -18.98828125 54.7734375 C-25.03625091 54.05681609 -30.10683107 51.9649389 -34.80078125 48.10546875 C-36.84346813 46.12571767 -36.84346813 46.12571767 -39.34423828 46.68017578 C-41.9364441 47.40350413 -44.09122645 48.30533116 -46.48046875 49.53515625 C-47.35316406 49.97859375 -48.22585937 50.42203125 -49.125 50.87890625 C-50.02863281 51.34554687 -50.93226563 51.8121875 -51.86328125 52.29296875 C-59.3082376 56.11325547 -66.81258389 59.77405105 -74.37109375 63.36328125 C-83.48199735 67.69774965 -92.53143248 72.14699416 -101.55078125 76.66796875 C-102.17799198 76.98229984 -102.80520271 77.29663094 -103.45141983 77.62048721 C-107.96515291 79.88343809 -112.47692922 82.15027566 -116.98828125 84.41796875 C-122.13279867 87.00393112 -127.27843852 89.58763445 -132.42578125 92.16796875 C-133.04587067 92.47910614 -133.66596008 92.79024353 -134.30484009 93.11080933 C-143.86200888 97.90309671 -153.47295684 102.57350568 -163.16186523 107.09472656 C-164.47586304 107.71299316 -164.47586304 107.71299316 -165.81640625 108.34375 C-166.95964355 108.87609253 -166.95964355 108.87609253 -168.12597656 109.41918945 C-170.15466473 110.391723 -170.15466473 110.391723 -171.98828125 112.41796875 C-170.31488945 112.42431666 -170.31488945 112.42431666 -168.60769176 112.43079281 C-141.49305587 112.53387586 -114.37844716 112.64260996 -87.26385784 112.75730801 C-74.1515817 112.81264301 -61.03930283 112.86612547 -47.92700195 112.9152832 C-36.50155029 112.95812164 -25.07611869 113.00439878 -13.65069801 113.0548473 C-7.59813396 113.08145097 -1.5455739 113.10630414 4.50701332 113.12704277 C10.19912712 113.14660052 15.89120273 113.17074176 21.58328247 113.19845963 C23.67672725 113.20783462 25.77018041 113.21550828 27.86363792 113.22138786 C30.71339943 113.22964139 33.56306806 113.24391602 36.41279602 113.25975037 C37.24839328 113.26072847 38.08399053 113.26170658 38.94490892 113.26271433 C42.22198637 113.28626188 44.88084699 113.37434483 48.01171875 114.41796875 C48.34171875 116.06796875 48.67171875 117.71796875 49.01171875 119.41796875 C53.96171875 119.41796875 58.91171875 119.41796875 64.01171875 119.41796875 C64.67171875 117.76796875 65.33171875 116.11796875 66.01171875 114.41796875 C68.94473787 112.95145919 71.57326736 113.25258401 74.84814453 113.21264648 C75.55069366 113.20274689 76.2532428 113.19284729 76.9770813 113.18264771 C79.30369678 113.15101195 81.63033269 113.12626716 83.95703125 113.1015625 C85.56843604 113.08099476 87.17983541 113.05999833 88.79122925 113.03858948 C93.03594581 112.98335021 97.28071122 112.93394914 101.5255127 112.88574219 C105.85559443 112.83554069 110.1856051 112.77984758 114.515625 112.72460938 C123.01426286 112.61700512 131.5129601 112.51556521 140.01171875 112.41796875 C137.29511912 110.28151514 134.60663674 108.5911247 131.51635742 107.04882812 C130.62990036 106.60406128 129.7434433 106.15929443 128.8301239 105.7010498 C127.39440788 104.98858093 127.39440788 104.98858093 125.9296875 104.26171875 C124.92448563 103.75934692 123.91928375 103.2569751 122.88362122 102.73937988 C120.74521774 101.67168947 118.60584181 100.60594484 116.46557617 99.54199219 C113.27494115 97.95561771 110.08740586 96.36316298 106.90039062 94.76953125 C96.91934627 89.78789678 86.91333894 84.86978972 76.8359375 80.0859375 C67.8750694 75.82913109 58.98206734 71.44451587 50.11328125 67 C49.47952639 66.682411 48.84577152 66.36482201 48.19281197 66.0376091 C43.67266178 63.77145156 39.15452878 61.50128708 34.63671875 59.23046875 C30.03801987 56.91925188 25.43861761 54.60945399 20.83756638 52.3029232 C19.01690892 51.38936462 17.19747124 50.47340885 15.37808228 49.55732727 C13.74774551 48.73968147 13.74774551 48.73968147 12.08447266 47.90551758 C11.12570221 47.42351395 10.16693176 46.94151031 9.17910767 46.44490051 C5.7599827 44.82488299 5.64275798 45.72732726 3.01171875 48.23046875 Z " fill="#FEDB00" transform="translate(273.98828125,32.58203125)"/>
<path d="M0 0 C7.06062499 4.97671237 12.41707223 11.8648647 14.01171875 20.41796875 C14.05765161 22.16091202 14.07039451 23.90495984 14.0546875 25.6484375 C14.04848389 26.54328857 14.04228027 27.43813965 14.03588867 28.36010742 C14.0279126 29.03920166 14.01993652 29.7182959 14.01171875 30.41796875 C30.09387436 38.97902387 46.28752675 47.30301782 62.75317383 55.10534668 C77.88939011 62.27961611 92.8497685 69.79909762 107.81359863 77.32409668 C111.98258706 79.4203198 116.15290528 81.51387458 120.32421875 83.60546875 C121.47788437 84.18438873 122.63154999 84.76330872 123.82017517 85.35977173 C132.31280835 89.60644525 140.85806773 93.73302898 149.47351074 97.72509766 C154.56284806 100.11472077 159.30393696 102.75906547 164.02757263 105.80789185 C175.82480821 113.39018968 189.49074811 112.43594908 203.01342773 112.22119141 C219.51142241 111.99435561 219.51142241 111.99435561 226.01171875 116.41796875 C226.63618896 116.82595703 227.26065918 117.23394531 227.90405273 117.65429688 C233.66810421 121.96313178 237.32917268 128.17066283 238.47199941 135.28217506 C238.65291576 138.48690271 238.67849992 141.6567561 238.64663696 144.86645508 C238.65443692 146.08484227 238.66223687 147.30322947 238.67027318 148.55853748 C238.6866834 151.91480721 238.68089223 155.2696637 238.66534209 158.62584543 C238.65397891 162.25511774 238.67151575 165.88427101 238.6852417 169.51351929 C238.70742599 176.61297539 238.70269451 183.71216657 238.68817849 190.81163287 C238.67686723 196.58364195 238.67536349 202.355577 238.68079758 208.12759399 C238.68194682 209.36181728 238.68194682 209.36181728 238.68311929 210.62097436 C238.68471798 212.29272773 238.68633905 213.96448108 238.68798225 215.6362344 C238.70222565 231.29685092 238.68586917 246.95732089 238.65898041 262.61791337 C238.63664289 276.0432005 238.64052342 289.46827145 238.66357422 302.89355469 C238.69035716 318.49972814 238.70085249 334.10577328 238.6855129 349.71196651 C238.68392023 351.37742549 238.68234837 353.04288449 238.68079758 354.70834351 C238.67964051 355.9373653 238.67964051 355.9373653 238.67846007 357.19121581 C238.67415054 362.95348725 238.68141347 368.71567701 238.69319534 374.47793579 C238.70724664 381.50428909 238.70336542 388.53036324 238.67679162 395.55668473 C238.66368849 399.13882059 238.65844035 402.72049177 238.67503738 406.30262375 C238.69278412 410.19183702 238.67153502 414.08029634 238.64663696 417.96948242 C238.65779057 419.0930354 238.66894418 420.21658838 238.68043578 421.37418842 C238.57802175 429.63561733 236.74152688 436.39023564 231.0220114 442.56660748 C223.46949997 449.73281333 216.62626024 450.86475078 206.5402832 450.82202148 C204.83663605 450.83231636 204.83663605 450.83231636 203.09857178 450.84281921 C199.35725286 450.86107055 195.61635373 450.85725327 191.875 450.8515625 C189.27141687 450.85612373 186.66783494 450.86142913 184.06425476 450.8674469 C178.6146545 450.87745886 173.16517307 450.87419243 167.71557617 450.86401367 C161.41865671 450.85251212 155.12216215 450.86664847 148.82529861 450.89341015 C142.75812976 450.91822807 136.69117985 450.92074806 130.62395287 450.91429329 C128.04549641 450.91413968 125.46703191 450.92021662 122.88860512 450.93258476 C119.29040206 450.94741827 115.69314365 450.93687432 112.0949707 450.91967773 C111.02631271 450.9293457 109.95765472 450.93901367 108.85661316 450.94897461 C101.68572095 450.87700404 101.68572095 450.87700404 98.3502655 448.60536194 C96.36713111 445.36461247 96.48064569 443.1354802 97.01171875 439.41796875 C98.37796021 437.23036194 98.37796021 437.23036194 101.01171875 435.41796875 C104.55409592 434.81735176 108.06651031 434.8855452 111.65185547 434.91967773 C113.27687485 434.91139954 113.27687485 434.91139954 114.9347229 434.9029541 C117.28752708 434.89362649 119.64038174 434.89353515 121.99319077 434.90154839 C125.71716345 434.91414966 129.4403918 434.90291386 133.16433716 434.88551331 C140.39982229 434.85603449 147.63518419 434.85319119 154.87071228 434.85516357 C164.69849372 434.85665127 174.52611979 434.83995589 184.35382462 434.7990284 C188.02212552 434.78918137 191.69007419 434.79791305 195.35836792 434.807724 C197.60984529 434.80157953 199.86132074 434.79466771 202.11279297 434.78686523 C203.64193329 434.79844414 203.64193329 434.79844414 205.20196533 434.81025696 C210.50373602 434.77233913 214.54465184 434.60733606 219.01171875 431.41796875 C223.19165208 426.58414633 222.42904773 420.87686284 222.39266968 414.84082031 C222.39734965 413.65584583 222.40202962 412.47087135 222.40685141 411.24998856 C222.41674799 407.96436843 222.41318491 404.6790807 222.40389276 401.39346886 C222.39710825 397.84876102 222.40758051 394.3040983 222.41583252 390.75939941 C222.42917847 383.81673369 222.4262883 376.87416522 222.4175946 369.93149567 C222.41082184 364.28948671 222.40989956 358.64750502 222.41316605 353.00549316 C222.41362575 352.20275947 222.41408544 351.40002577 222.41455907 350.57296681 C222.41551824 348.94227313 222.41649088 347.31157946 222.41747685 345.68088579 C222.42603326 330.38673263 222.41619267 315.09263341 222.40007575 299.79848909 C222.38667233 286.67292405 222.38900036 273.5474386 222.40283203 260.421875 C222.4188834 245.18277551 222.42520927 229.9437233 222.41599524 214.70461655 C222.41503958 213.07989248 222.41409647 211.45516841 222.41316605 209.83044434 C222.41247181 208.63132412 222.41247181 208.63132412 222.41176354 207.40797925 C222.40917232 201.77217808 222.41354749 196.13640688 222.42060471 190.50061035 C222.42901499 183.63325874 222.42674954 176.76601001 222.41076247 169.8986702 C222.40287335 166.3942473 222.39979895 162.889996 222.40970993 159.38557434 C222.41787383 155.58858261 222.4076655 151.79207767 222.39266968 147.99511719 C222.39936184 146.88471699 222.40605401 145.77431679 222.41294897 144.6302681 C222.52001979 137.43438558 222.52001979 137.43438558 219.01171875 131.41796875 C214.869613 128.77048672 211.68513973 128.04420924 206.81234741 128.05288696 C205.58982773 128.04757462 204.36730804 128.04226227 203.10774231 128.03678894 C201.76632526 128.04593541 200.42490987 128.05532775 199.08349609 128.06494141 C197.66054646 128.06410996 196.23759707 128.06189179 194.81465149 128.05839539 C191.75842847 128.0534569 188.70239774 128.05752064 185.64619064 128.06840897 C180.81382101 128.08479434 175.98169156 128.07629371 171.14932251 128.06356812 C158.27987942 128.03347295 145.4104805 128.03493556 132.54102004 128.05382097 C124.07852175 128.06614636 115.61629599 128.06432105 107.15382922 128.03543317 C102.34936002 128.02018487 97.54563012 128.0277006 92.74120688 128.05214334 C89.75487729 128.06220257 86.76888826 128.0515369 83.7825985 128.03502846 C82.39746837 128.03157243 81.01228645 128.03669277 79.62722588 128.05099678 C77.73727448 128.06930815 75.84708636 128.05402761 73.9571228 128.03701782 C72.89932302 128.0381489 71.84152325 128.03927998 70.75166893 128.04044533 C68.01171875 127.41796875 68.01171875 127.41796875 65.671381 125.07068443 C63.64228477 121.82748517 63.37172827 120.17791282 64.01171875 116.41796875 C66.23847072 113.42885024 67.43350264 112.51358283 71.15020752 111.89898682 C72.38486755 111.89010437 73.61952759 111.88122192 74.89160156 111.87207031 C75.57493561 111.86173264 76.25826965 111.85139496 76.96231079 111.84074402 C79.2133959 111.81132519 81.46358155 111.80981715 83.71484375 111.80859375 C85.27856154 111.79361134 86.84226351 111.77688406 88.40594482 111.75848389 C92.51587655 111.71480432 96.62559482 111.69481014 100.73571777 111.67974854 C104.9320132 111.66017948 109.12807802 111.6182093 113.32421875 111.578125 C121.55332509 111.50281643 129.78234088 111.45252912 138.01171875 111.41796875 C131.31360294 108.05598442 124.61376244 104.69745479 117.9128418 101.34106445 C115.64456147 100.20444608 113.37664376 99.06710368 111.10913086 97.92895508 C99.70441662 92.20509872 88.29034286 86.51374645 76.76171875 81.04296875 C63.25828351 74.63217527 49.9056584 67.92247297 36.5458374 61.21936035 C33.19994899 59.54118544 29.85284369 57.86544097 26.50585938 56.18945312 C20.00666183 52.93458434 13.50874895 49.67716203 7.01171875 46.41796875 C6.48352539 46.82934082 5.95533203 47.24071289 5.41113281 47.66455078 C4.70698242 48.20450684 4.00283203 48.74446289 3.27734375 49.30078125 C2.58415039 49.83590332 1.89095703 50.37102539 1.17675781 50.92236328 C-5.75259044 55.7091458 -13.78174112 56.39035827 -21.98828125 55.41796875 C-26.89851057 54.08811497 -30.86478044 52.34173608 -34.80078125 49.10546875 C-36.84346813 47.12571767 -36.84346813 47.12571767 -39.34423828 47.68017578 C-41.9364441 48.40350413 -44.09122645 49.30533116 -46.48046875 50.53515625 C-47.35316406 50.97859375 -48.22585937 51.42203125 -49.125 51.87890625 C-50.02863281 52.34554687 -50.93226563 52.8121875 -51.86328125 53.29296875 C-59.3082376 57.11325547 -66.81258389 60.77405105 -74.37109375 64.36328125 C-83.48199735 68.69774965 -92.53143248 73.14699416 -101.55078125 77.66796875 C-102.17799198 77.98229984 -102.80520271 78.29663094 -103.45141983 78.62048721 C-107.96515291 80.88343809 -112.47692922 83.15027566 -116.98828125 85.41796875 C-121.51468342 87.693227 -126.041859 89.96692226 -130.57077026 92.23718262 C-132.32287887 93.11633558 -134.07371145 93.99803028 -135.82446289 94.87988281 C-147.13565545 100.55208104 -158.56262374 105.98103852 -169.98828125 111.41796875 C-168.88391598 111.41943531 -167.7795507 111.42090187 -166.64171982 111.42241287 C-139.79372789 111.45897686 -112.94586102 111.51838562 -86.09797287 111.60187149 C-73.11462949 111.64171318 -60.13134717 111.6740796 -47.14794922 111.68896484 C-35.83413649 111.70195478 -24.52045783 111.7288513 -13.20672059 111.77258182 C-7.21388235 111.79525646 -1.22120984 111.81087584 4.77167511 111.8098526 C10.40893001 111.80910953 16.04581773 111.82691782 21.68297768 111.85913658 C23.75502919 111.867676 25.8271217 111.8693583 27.89918327 111.86377144 C30.72271223 111.85717077 33.54505937 111.87495737 36.36846924 111.89898682 C37.19337176 111.8912264 38.01827427 111.88346598 38.86817384 111.8754704 C42.46259911 111.92983401 44.5862809 112.10446443 47.52067184 114.26681137 C49.57515176 117.23084262 49.58942053 118.87954533 49.01171875 122.41796875 C47.70517445 125.071105 47.70517445 125.071105 45.01171875 127.41796875 C41.15824775 128.18620423 37.33394799 128.07685277 33.41642761 128.0302887 C32.21738448 128.03582211 31.01834135 128.04135552 29.78296357 128.04705662 C26.45293017 128.0574744 23.12432339 128.04548709 19.79443061 128.02420366 C16.20399166 128.00673111 12.61363414 128.01813577 9.0231781 128.0262146 C2.80041955 128.03642649 -3.42211187 128.02880434 -9.64484596 128.00955391 C-18.64950061 127.98207367 -27.65393517 127.98589323 -36.65861364 127.99813973 C-51.27772183 128.01754193 -65.89675758 128.01758628 -80.51586914 128.00268555 C-81.3910117 128.00179941 -82.26615427 128.00091328 -83.1678163 128.00000029 C-86.71362396 127.99636641 -90.25943152 127.99264903 -93.80523898 127.98883373 C-103.5600179 127.97837611 -113.31479773 127.97012759 -123.06958008 127.96362305 C-124.37933205 127.96274069 -124.37933205 127.96274069 -125.71554366 127.96184052 C-140.27593087 127.95256017 -154.83627475 127.95903732 -169.39665431 127.97593349 C-178.37796901 127.98552464 -187.35905107 127.9803627 -196.34033956 127.95616578 C-202.49550272 127.94041334 -208.65056675 127.93858781 -214.80574302 127.94769902 C-218.35705122 127.95242632 -221.9080399 127.95051467 -225.45930481 127.9310627 C-229.31034366 127.91007778 -233.16095635 127.91992024 -237.01203918 127.93263245 C-238.13285961 127.92146143 -239.25368004 127.91029041 -240.40846473 127.89878088 C-246.79159265 127.95033521 -250.86895254 128.46759082 -255.98828125 132.41796875 C-257.93229208 135.46829379 -258.23978899 137.83950216 -258.24555016 141.42243767 C-258.25199905 142.43688639 -258.25844794 143.4513351 -258.26509225 144.49652469 C-258.26199505 145.60915561 -258.25889785 146.72178653 -258.25570679 147.86813354 C-258.2602379 149.05154803 -258.26476901 150.23496252 -258.26943743 151.45423806 C-258.27991983 154.74014582 -258.28140523 158.02583497 -258.27904868 161.31174397 C-258.2786409 164.85512315 -258.28967596 168.39846955 -258.29916382 171.9418335 C-258.31578291 178.88427754 -258.32127377 185.82668762 -258.32238857 192.76914988 C-258.32333859 198.4116477 -258.32744654 204.0541343 -258.33378983 209.69662857 C-258.35140447 225.69049093 -258.36062831 241.68432643 -258.35912888 257.67819856 C-258.35904897 258.54058932 -258.35896905 259.40298009 -258.35888672 260.29150391 C-258.35880496 261.15494632 -258.3587232 262.01838874 -258.35863896 262.90799607 C-258.35782592 276.9037644 -258.37696743 290.89942513 -258.40516345 304.89516233 C-258.43387957 319.26230328 -258.44770446 333.62939174 -258.4459759 347.99656212 C-258.44531157 356.06409823 -258.45082253 364.13152155 -258.472332 372.19903183 C-258.49052707 379.06748889 -258.49490498 385.93578203 -258.48131315 392.80425273 C-258.47477502 396.30884977 -258.47469627 399.81313217 -258.49201965 403.31769943 C-258.5073882 407.11669528 -258.49821824 410.91485954 -258.48275757 414.71383667 C-258.49818826 416.37609089 -258.49818826 416.37609089 -258.51393068 418.071926 C-258.45926463 424.13231867 -258.18676348 427.88953192 -253.98828125 432.41796875 C-250.75094524 434.46919637 -248.19957282 434.66808621 -244.40317631 434.66850853 C-243.25922525 434.67350723 -242.1152742 434.67850592 -240.93665797 434.6836561 C-239.67937984 434.67899288 -238.42210171 434.67432967 -237.12672424 434.66952515 C-235.77802412 434.67166333 -234.42932517 434.67468848 -233.08062881 434.67852557 C-229.37097102 434.68657736 -225.66141384 434.68225324 -221.95175636 434.67600679 C-217.95236754 434.67147919 -213.95299809 434.67850993 -209.95361328 434.68431091 C-203.0221087 434.69294991 -196.09062965 434.69475062 -189.15912056 434.69236374 C-179.13183085 434.68926931 -169.10459772 434.7008935 -159.07732224 434.71691354 C-142.80212288 434.74288561 -126.52692347 434.76289953 -110.25170898 434.77636719 C-109.27735151 434.77717756 -108.30299404 434.77798793 -107.29911058 434.77882285 C-93.46837511 434.79004692 -79.63764366 434.79532597 -65.80690425 434.79820998 C-64.83284997 434.79841397 -63.85879569 434.79861796 -62.85522461 434.79882812 C-61.88235497 434.79902806 -60.90948532 434.799228 -59.90713478 434.79943399 C-43.69466542 434.80316454 -27.48225738 434.82223313 -11.26981872 434.85392249 C-1.26591128 434.87285779 8.73783909 434.87878588 18.74175955 434.86810531 C25.59448101 434.86179519 32.44708967 434.86980125 39.29978638 434.88915943 C43.25587095 434.89986192 47.21168177 434.90395851 51.16776466 434.89068794 C54.78809701 434.8786653 58.40791529 434.88494239 62.02820278 434.90587993 C63.96092152 434.91224019 65.89367393 434.89884587 67.82635206 434.88479459 C69.54619026 434.90011588 69.54619026 434.90011588 71.30077267 434.91574669 C72.29005416 434.91618142 73.27933565 434.91661616 74.29859537 434.91706407 C77.81714097 435.56666813 79.50625256 436.90199057 82.01171875 439.41796875 C82.57421875 442.91796875 82.57421875 442.91796875 82.01171875 446.41796875 C79.94525732 449.10487422 78.76059863 450.27399939 75.39763772 450.92051607 C73.89524134 450.9223033 73.89524134 450.9223033 72.36249352 450.92412663 C70.62506671 450.94069816 70.62506671 450.94069816 68.85254037 450.95760447 C67.5792181 450.9493637 66.30589583 450.94112293 64.99398804 450.93263245 C63.62822138 450.93795631 62.26246058 450.94502108 60.89671099 450.9536795 C57.13960665 450.97235657 53.38289512 450.96598458 49.62577415 450.95552647 C45.57513702 450.94854836 41.52458174 450.96452216 37.47396851 450.9775238 C29.53552298 450.99919553 21.59722063 450.99902829 13.65875523 450.99089826 C7.20487898 450.98460278 0.75104453 450.98573116 -5.70283127 450.99217033 C-6.62082201 450.99307199 -7.53881275 450.99397364 -8.4846214 450.99490262 C-10.34948196 450.99675381 -12.21434251 450.99861637 -14.07920305 451.00049018 C-31.57961787 451.01708098 -49.07995214 451.00833998 -66.58036213 450.9915046 C-82.5845424 450.97682027 -98.58853472 450.9914159 -114.59269078 451.02027477 C-131.02552654 451.04968575 -147.45827561 451.06063521 -163.89113653 451.05109257 C-165.75103655 451.05007002 -167.61093659 451.04907541 -169.47083664 451.04810905 C-170.38593418 451.04763266 -171.30103171 451.04715627 -172.24385948 451.04666545 C-178.68533823 451.04450281 -185.12673481 451.05429788 -191.56819534 451.06888008 C-199.42544341 451.08641887 -207.28245222 451.08626457 -215.13969095 451.06352843 C-219.14708142 451.05239777 -223.15405063 451.04919636 -227.16142273 451.06782913 C-230.8345382 451.08468738 -234.50686682 451.0782118 -238.1799318 451.05361234 C-240.1288452 451.04645107 -242.07780187 451.06371647 -244.02664244 451.08202368 C-252.69217093 450.99032875 -259.63806975 449.45622801 -266.13172019 443.42823511 C-273.50075604 435.68457705 -274.4313505 428.67149093 -274.38269043 418.33024597 C-274.38878153 417.11442205 -274.39487264 415.89859813 -274.40114832 414.64593107 C-274.41489089 411.28321748 -274.41523761 407.92099359 -274.40977335 404.55828893 C-274.40709857 400.92693751 -274.4216434 397.2956481 -274.43386841 393.6643219 C-274.45490616 386.554495 -274.4594642 379.44474968 -274.45768052 372.33489534 C-274.45637199 366.55424524 -274.46018171 360.77362055 -274.46760559 354.99297523 C-274.46970483 353.32672749 -274.47180243 351.66047975 -274.47389841 349.994232 C-274.47494194 349.16484211 -274.47598547 348.33545221 -274.47706062 347.48092929 C-274.49595653 331.80034001 -274.49491487 316.11979752 -274.48809129 300.43920157 C-274.4825171 286.10357305 -274.5033371 271.76812331 -274.53645176 257.43253656 C-274.57021009 242.70366964 -274.58535437 227.97488831 -274.58073473 213.24598199 C-274.5784921 204.98048772 -274.58370281 196.71515866 -274.60862732 188.44969749 C-274.62966825 181.41231406 -274.63320496 174.3751864 -274.61432773 167.33779236 C-274.60518666 163.7495864 -274.6039759 160.16185698 -274.62468338 156.57368851 C-274.64691748 152.67777788 -274.63013477 148.78257512 -274.60974121 144.88664246 C-274.62225906 143.76104312 -274.63477691 142.63544378 -274.64767408 141.47573537 C-274.5549503 133.19998901 -272.70467781 126.49093535 -267.0278182 120.26940888 C-262.51121656 115.90668279 -257.22072402 112.75473574 -250.84217834 112.24720764 C-248.53770014 112.28934396 -246.25265278 112.41813491 -243.953125 112.57421875 C-218.18948661 113.63023815 -200.4613047 109.6158108 -178.13850403 96.95526123 C-168.07873083 91.25859581 -157.7040368 86.19138318 -147.34371376 81.07065773 C-143.29718788 79.07009337 -139.25967571 77.0523521 -135.22705078 75.02392578 C-124.05663959 69.40610566 -112.85006706 63.88715859 -101.55488586 58.52458191 C-89.44857281 52.76045118 -77.49584192 46.68737426 -65.52905273 40.64038086 C-62.50024194 39.11100469 -59.46904218 37.58645297 -56.4375 36.0625 C-55.51378098 35.59391068 -54.59006195 35.12532135 -53.63835144 34.64253235 C-52.79178482 34.21755966 -51.9452182 33.79258698 -51.07299805 33.35473633 C-49.95794136 32.79161491 -49.95794136 32.79161491 -48.82035828 32.21711731 C-46.98828125 31.41796875 -46.98828125 31.41796875 -44.98828125 31.41796875 C-45.19453125 30.28359375 -45.40078125 29.14921875 -45.61328125 27.98046875 C-46.48930959 20.67593833 -44.65101785 14.38873426 -40.53125 8.3359375 C-30.53462779 -4.09024353 -14.36090081 -8.47411833 0 0 Z " fill="#000000" transform="translate(273.98828125,32.58203125)"/>
<path d="M0 0 C4.95 0 9.9 0 15 0 C15.99 1.98 16.98 3.96 18 6 C19.75146912 7.75146912 22.19878584 7.12847802 24.57791138 7.13130188 C26.3948777 7.13731415 26.3948777 7.13731415 28.24855042 7.14344788 C29.60336306 7.14297272 30.95817568 7.14243659 32.31298828 7.1418457 C33.73033253 7.14487565 35.1476758 7.14839665 36.5650177 7.15237427 C39.62507359 7.16027831 42.68511774 7.16541392 45.74518204 7.16866493 C50.58633252 7.17456557 55.4274091 7.19109841 60.26852417 7.21000671 C61.92498202 7.21634469 63.58143993 7.22267031 65.23789787 7.22898388 C66.06766947 7.23214969 66.89744106 7.2353155 67.75235724 7.23857725 C79.02694881 7.28066578 90.30150703 7.31361233 101.57617188 7.32592773 C109.17496296 7.33431338 116.77357223 7.35682628 124.37227237 7.3952834 C128.39393698 7.41503427 132.41532985 7.4274521 136.43704605 7.42244911 C140.2243467 7.41779558 144.01113325 7.43164595 147.79833031 7.45946121 C149.1853981 7.46636235 150.57251918 7.4665111 151.95958519 7.45926094 C165.3309981 7.39645143 165.3309981 7.39645143 171 12 C175.16921469 16.8461744 174.42042141 22.52492898 174.38768005 28.57041931 C174.39575836 30.34682268 174.39575836 30.34682268 174.40399987 32.15911299 C174.41583306 35.44279628 174.41420708 38.72615456 174.40683305 42.00984085 C174.4021059 45.5525288 174.4146072 49.09516215 174.42485046 52.63783264 C174.44205268 59.57681712 174.44287555 66.5157111 174.43763756 73.45471137 C174.4335973 79.09432928 174.4350377 84.73392043 174.44038582 90.37353706 C174.44113424 91.17598204 174.44188266 91.97842701 174.44265376 92.8051885 C174.44418523 94.43531644 174.44572358 96.06544439 174.44726873 97.69557232 C174.4609989 112.98498337 174.45555244 128.27434325 174.44408352 143.56375314 C174.43415038 157.552996 174.44709227 171.54210662 174.47101771 185.53132909 C174.49539685 199.89398774 174.50501952 214.25658477 174.49836498 228.61926371 C174.49487015 236.68342437 174.49712223 244.74748331 174.51461601 252.81162834 C174.52932319 259.67641022 174.52999297 266.54101875 174.5125451 273.40579718 C174.50402039 276.90836972 174.50192097 280.41063238 174.51719666 283.91318893 C174.53033032 287.70995315 174.5189252 291.50586982 174.50120544 295.30259705 C174.51081045 296.4100844 174.52041546 297.51757176 174.53031152 298.65861934 C174.47167573 304.74695145 174.11573704 308.39050319 170 313 C164.73518226 316.79501115 159.32007621 316.42231064 153.08520508 316.38476562 C151.99674789 316.3901384 150.90829071 316.39551117 149.78684998 316.40104675 C147.42970872 316.41081205 145.07253156 316.41377269 142.71537209 316.41069031 C138.98794496 316.40621205 135.26099246 316.42021174 131.53361511 316.43908691 C122.95362107 316.47898032 114.37363742 316.49149563 105.79357147 316.50261688 C97.29408427 316.51395806 88.79478547 316.53689643 80.29538536 316.58000183 C76.61755268 316.59361849 72.94000945 316.58939355 69.26216125 316.58459473 C67.01697413 316.59393049 64.77179025 316.60409808 62.52661133 316.61523438 C61.49954071 316.60908615 60.47247009 316.60293793 59.41427612 316.59660339 C58.00751869 316.60890739 58.00751869 316.60890739 56.57234192 316.62145996 C55.34928958 316.62252872 55.34928958 316.62252872 54.10152912 316.62361908 C51.4402328 317.10025352 50.59646458 317.84132462 49 320 C48.67 321.32 48.34 322.64 48 324 C43.05 324 38.1 324 33 324 C32.34 322.35 31.68 320.7 31 319 C27.61969986 316.74646657 26.49784686 316.74990049 22.5407362 316.74946022 C21.39939289 316.74446152 20.25804959 316.73946283 19.08212012 316.73431265 C17.82261127 316.73897587 16.56310242 316.74363908 15.26542664 316.7484436 C13.91830226 316.74630609 12.57117905 316.74328144 11.22405845 316.73944318 C7.51407198 316.73138159 3.80418595 316.73572016 0.09419978 316.74196196 C-3.90386244 316.7464855 -7.90190518 316.73946089 -11.89996338 316.73365784 C-18.83093771 316.72501459 -25.76188652 316.72321918 -32.69286537 316.72560501 C-42.72050263 316.7286984 -52.74808328 316.71707867 -62.77570631 316.70105521 C-79.05253287 316.67507625 -95.32935947 316.65506638 -111.60620117 316.64160156 C-112.58086184 316.64079119 -113.5555225 316.63998082 -114.55971833 316.6391459 C-128.39045381 316.62792521 -142.22118526 316.62264365 -156.05192467 316.61975877 C-157.02567576 316.61955478 -157.99942685 316.61935079 -159.00268555 316.61914062 C-159.97525251 316.61894069 -160.94781948 316.61874075 -161.94985817 316.61853476 C-178.16117067 316.61480333 -194.37242188 316.5957277 -210.5837037 316.56404626 C-220.58677409 316.54511583 -230.58968744 316.5391799 -240.59277084 316.54986344 C-247.44691072 316.55617683 -254.3009379 316.5481582 -261.15505306 316.52880932 C-265.11125453 316.51811363 -269.06718244 316.51399877 -273.02338219 316.52728081 C-276.64504008 316.53931775 -280.26618465 316.53300326 -283.88779785 316.51208882 C-285.81883089 316.50573952 -287.74989765 316.51911013 -289.6808899 316.53317416 C-300.39300606 316.43796115 -300.39300606 316.43796115 -305 312 C-309.25848032 307.33637583 -308.4199209 301.38265462 -308.38768005 295.42958069 C-308.39306559 294.24531177 -308.39845113 293.06104286 -308.40399987 291.84088701 C-308.41583306 288.55720372 -308.41420708 285.27384544 -308.40683305 281.99015915 C-308.4021059 278.4474712 -308.4146072 274.90483785 -308.42485046 271.36216736 C-308.44205268 264.42318288 -308.44287555 257.4842889 -308.43763756 250.54528863 C-308.4335973 244.90567072 -308.4350377 239.26607957 -308.44038582 233.62646294 C-308.44113424 232.82401796 -308.44188266 232.02157299 -308.44265376 231.1948115 C-308.44418523 229.56468356 -308.44572358 227.93455561 -308.44726873 226.30442768 C-308.4609989 211.01501663 -308.45555244 195.72565675 -308.44408352 180.43624686 C-308.43415038 166.447004 -308.44709227 152.45789338 -308.47101771 138.46867091 C-308.49539685 124.10601226 -308.50501952 109.74341523 -308.49836498 95.38073629 C-308.49487015 87.31657563 -308.49712223 79.25251669 -308.51461601 71.18837166 C-308.52932319 64.32358978 -308.52999297 57.45898125 -308.5125451 50.59420282 C-308.50402039 47.09163028 -308.50192097 43.58936762 -308.51719666 40.08681107 C-308.53033032 36.29004685 -308.5189252 32.49413018 -308.50120544 28.69740295 C-308.51561295 27.03617192 -308.51561295 27.03617192 -308.53031152 25.34138066 C-308.47359353 19.45217901 -308.26335243 15.46843225 -304 11 C-298.57852012 6.99801936 -292.59397733 7.58468535 -286.13728333 7.62818909 C-284.93370908 7.62436452 -283.73013483 7.62053996 -282.49008864 7.6165995 C-279.15719087 7.60892726 -275.82479977 7.61461777 -272.49194443 7.62589633 C-268.89480915 7.63475772 -265.29771111 7.6262444 -261.70057678 7.61968994 C-255.47026482 7.61053798 -249.24002653 7.6118585 -243.00971413 7.61987495 C-233.99848502 7.63110524 -224.98736091 7.62206721 -215.97614094 7.60731315 C-201.35136464 7.58354706 -186.72660131 7.57017628 -172.10180664 7.56616211 C-171.22674584 7.56591724 -170.35168504 7.56567237 -169.45010724 7.56542008 C-159.68123579 7.56287267 -149.91236534 7.56230821 -140.14349365 7.56335449 C-136.59802246 7.56368754 -133.05255127 7.56397292 -129.50708008 7.56420898 C-128.63217593 7.56427177 -127.75727178 7.56433456 -126.85585538 7.56439925 C-112.28185272 7.56500347 -97.70790998 7.55014952 -83.13393229 7.52337593 C-74.14174751 7.50754662 -65.14975575 7.50533797 -56.15756883 7.52050995 C-50.00150451 7.52995193 -43.84555689 7.52525562 -37.68950633 7.50929613 C-34.13464188 7.50057333 -30.58008709 7.49852913 -27.02523804 7.51382256 C-23.17725956 7.53024569 -19.32974873 7.51607687 -15.48176575 7.49879456 C-14.35065819 7.50860133 -13.21955063 7.51840811 -12.05416709 7.52851206 C-11.02777584 7.51891457 -10.00138459 7.50931708 -8.94389057 7.49942875 C-7.61082464 7.49958975 -7.61082464 7.49958975 -6.25082809 7.49975401 C-3.85106479 7.1872344 -3.85106479 7.1872344 -2.25350684 5.1562857 C-0.86657299 2.9387129 -0.86657299 2.9387129 0 0 Z M-293 28 C-293.73311234 31.58008902 -293.67457831 35.0979534 -293.63491821 38.74194336 C-293.64271817 39.83707969 -293.65051812 40.93221601 -293.65855443 42.06053829 C-293.67852902 45.73731367 -293.6626873 49.41306033 -293.64697266 53.08984375 C-293.65374628 55.72283534 -293.66264797 58.3558222 -293.67352295 60.98880005 C-293.6957613 67.40213201 -293.69095169 73.81517147 -293.67645974 80.22851491 C-293.66516977 85.44052485 -293.66363553 90.65245278 -293.66907883 95.86447144 C-293.66984499 96.60614718 -293.67061116 97.34782293 -293.67140054 98.1119737 C-293.67299916 99.6186534 -293.67462023 101.12533308 -293.6762635 102.63201272 C-293.69052274 116.76163516 -293.67412559 130.89109543 -293.64726166 145.02069128 C-293.62492267 157.14571134 -293.62880275 169.27049207 -293.65185547 181.39550781 C-293.67861045 195.47440437 -293.68914942 209.55315878 -293.67379415 223.63207722 C-293.6722014 225.13322764 -293.67062954 226.63437809 -293.66907883 228.13552856 C-293.66830745 228.87413162 -293.66753607 229.61273467 -293.66674132 230.37371963 C-293.6624234 235.57973735 -293.66971282 240.78566494 -293.68147659 245.9916687 C-293.69696054 252.99806128 -293.6859436 260.00399376 -293.65700531 267.01034164 C-293.65038148 269.58510459 -293.65231411 272.15990552 -293.66331863 274.73465347 C-293.67693328 278.242973 -293.65990505 281.74983087 -293.63491821 285.25805664 C-293.64607182 286.28285598 -293.65722543 287.30765532 -293.66871703 288.36350918 C-293.65567829 289.30393094 -293.64263955 290.2443527 -293.6292057 291.21327209 C-293.62839394 292.02278352 -293.62758218 292.83229494 -293.62674582 293.66633701 C-292.65799856 297.27342868 -290.93675572 298.75403957 -288 301 C-285.29153428 301.49123264 -283.21209764 301.67146808 -280.51146698 301.62361908 C-279.38820093 301.6336211 -279.38820093 301.6336211 -278.24224263 301.64382517 C-275.72440348 301.66011185 -273.2081081 301.64066073 -270.69030762 301.62145996 C-268.87051255 301.6257875 -267.05072158 301.63230215 -265.2309413 301.64082003 C-260.22362236 301.65785383 -255.21680154 301.64360082 -250.20950866 301.62430525 C-244.81202084 301.60891007 -239.41459533 301.62227188 -234.0171051 301.63204956 C-223.44081695 301.64659509 -212.86472039 301.63432295 -202.28845036 301.61293632 C-189.97893656 301.58895611 -177.66946695 301.59063886 -165.35993499 301.59324223 C-143.40056132 301.59693462 -121.44127809 301.57608774 -99.48193359 301.54199219 C-78.16060665 301.50889942 -56.83941854 301.49473364 -35.51806641 301.50097656 C-12.31557039 301.50773684 10.88688583 301.50529063 34.08937597 301.48561716 C35.31572232 301.48457768 36.54206866 301.48353819 37.80557701 301.4824672 C40.2688168 301.48037627 42.73205657 301.47826529 45.19529632 301.47613403 C53.78112558 301.46923128 62.36694259 301.46857031 70.95277405 301.47001648 C81.41219613 301.47145451 91.87154069 301.46179603 102.33093703 301.43807012 C107.67022562 301.42619009 113.009406 301.41909829 118.3487072 301.42490768 C123.23274157 301.43006481 128.11654697 301.42144342 133.0005421 301.40163308 C134.77098848 301.3968782 136.54145704 301.39721246 138.3119002 301.40304345 C140.71203077 301.41018676 143.11139466 301.39900547 145.51146698 301.38311005 C146.55089503 301.39278775 146.55089503 301.39278775 147.61132163 301.40266097 C151.88343716 301.34928047 154.63405443 300.67344318 158 298 C158.94651006 295.16046982 159.1277064 293.41442822 159.13422108 290.47219181 C159.14090784 289.07183236 159.14090784 289.07183236 159.14772969 287.64318281 C159.14754533 286.61576662 159.14736097 285.58835043 159.14717102 284.52980042 C159.15268605 282.89472618 159.15268605 282.89472618 159.1583125 281.22662014 C159.16937049 277.55545365 159.17319672 273.88431544 159.17700195 270.21313477 C159.18326484 267.58867299 159.18991148 264.9642121 159.19691467 262.3397522 C159.21667391 254.45215621 159.22674319 246.56455895 159.23564246 238.6769444 C159.24002499 234.9641376 159.24539177 231.25133221 159.25063133 227.53852654 C159.2676407 215.20016177 159.28213659 202.86179789 159.28938007 190.52342319 C159.29129001 187.32184918 159.29321034 184.12027516 159.29516602 180.91870117 C159.29564976 180.12295277 159.2961335 179.32720438 159.2966319 178.50734239 C159.30493872 165.60623751 159.3302879 152.70522516 159.36274669 139.80416072 C159.39578571 126.56481927 159.41382584 113.32552491 159.41702431 100.086142 C159.41919201 92.6502149 159.42797878 85.21442284 159.45348549 77.77853584 C159.47740958 70.78786429 159.48103811 63.79743997 159.47072411 56.80673599 C159.47022635 54.23637649 159.47661681 51.66600538 159.49028015 49.09568214 C159.50784854 45.59588583 159.50096674 42.09697851 159.48774719 38.59718323 C159.49871644 37.57199776 159.50968568 36.54681229 159.52098733 35.49056059 C159.55261432 30.07042492 159.55261432 30.07042492 157.0945158 25.40017605 C153.80486306 23.20105539 151.9860516 22.87301938 148.05142498 22.86298561 C146.47209888 22.8553738 146.47209888 22.8553738 144.8608672 22.84760821 C143.6950371 22.84711045 142.52920699 22.84661269 141.32804871 22.84609985 C139.48092796 22.83952647 139.48092796 22.83952647 137.59649163 22.8328203 C134.16737666 22.82173778 130.73830741 22.81520232 127.30918109 22.81063914 C123.61514349 22.80468975 119.92112278 22.79307833 116.22709656 22.78234863 C107.30088094 22.75781058 98.37465971 22.74319604 89.44842073 22.73028857 C86.92839544 22.72657785 84.4083707 22.72260453 81.88834596 22.7185359 C66.24792513 22.69330217 50.60750346 22.67124349 34.96706676 22.65880775 C31.34319747 22.65587794 27.71932821 22.65291629 24.09545898 22.64990234 C23.19473588 22.64915629 22.29401277 22.64841024 21.36599503 22.64764158 C6.76802375 22.63498232 -7.82982588 22.60175232 -22.42774025 22.56010051 C-37.40614291 22.51771243 -52.38448324 22.4941164 -67.36294574 22.48888719 C-75.77648403 22.48546966 -84.18983218 22.47367434 -92.60331154 22.44078445 C-99.76719944 22.41282573 -106.93085823 22.40176615 -114.09479646 22.41297992 C-117.75121901 22.41817728 -121.40716147 22.41521102 -125.06351471 22.39051437 C-129.02490581 22.36398021 -132.98563743 22.37604568 -136.94709778 22.39199829 C-138.10623572 22.3781162 -139.26537366 22.36423412 -140.45963699 22.34993136 C-146.89193791 22.26061179 -146.89193791 22.26061179 -152.25330639 25.35050011 C-154.27520417 27.88853938 -154.27520417 27.88853938 -154 31 C-158.95 31 -163.9 31 -169 31 C-169.99 28.525 -169.99 28.525 -171 26 C-173.83171406 23.23187456 -175.82638568 22.62330713 -179.73728943 22.60559082 C-180.68636169 22.59424103 -181.63543396 22.58289124 -182.61326599 22.57119751 C-183.64766312 22.57412811 -184.68206024 22.57705872 -185.74780273 22.58007812 C-186.84250885 22.57160858 -187.93721497 22.56313904 -189.06509399 22.55441284 C-192.68804504 22.53099101 -196.31057269 22.53002194 -199.93359375 22.53125 C-202.44938834 22.52415172 -204.9651813 22.51645321 -207.48097229 22.50817871 C-212.7559849 22.49472208 -218.03088821 22.49298969 -223.3059082 22.49902344 C-229.39890222 22.50566467 -235.49129093 22.48279605 -241.58416218 22.44570971 C-247.45109177 22.41129753 -253.31778328 22.40467703 -259.1848011 22.40879822 C-261.67870957 22.407103 -264.17262573 22.39742212 -266.66647148 22.37965393 C-270.15240544 22.35755066 -273.63687433 22.36712387 -277.12280273 22.38476562 C-278.15517563 22.37150238 -279.18754852 22.35823914 -280.25120544 22.34457397 C-281.67904358 22.36138718 -281.67904358 22.36138718 -283.13572693 22.37854004 C-283.95922355 22.37782753 -284.78272017 22.37711502 -285.63117123 22.37638092 C-289.40031169 23.36864677 -290.73784723 24.83035657 -293 28 Z " fill="#E5814B" transform="translate(323,152)"/>
<path d="M0 0 C0.95044693 -0.01265396 1.90089386 -0.02530792 2.88014221 -0.03834534 C4.42634499 -0.02080704 4.42634499 -0.02080704 6.00378418 -0.00291443 C7.64606239 -0.01364738 7.64606239 -0.01364738 9.32151794 -0.02459717 C12.93933885 -0.04150102 16.55592364 -0.02207003 20.17370605 -0.00071716 C22.68807071 -0.0015457 25.2024353 -0.00400448 27.71679688 -0.00802612 C32.98593477 -0.01088529 38.25475222 0.00329983 43.52380371 0.03126526 C49.60938988 0.06331608 55.69433516 0.0633006 61.77996683 0.04605049 C67.64212505 0.03016816 73.50404734 0.03702771 79.36619568 0.0539875 C81.85728938 0.05917278 84.34840152 0.05868335 86.8394928 0.05244255 C90.32044238 0.04699569 93.80030245 0.06735064 97.28112793 0.09474182 C98.8273307 0.084953 98.8273307 0.084953 100.4047699 0.07496643 C104.79725448 0.13377243 107.42121122 0.19954599 111.25488281 2.47793579 C113.71257571 5.27764822 114.21842325 6.90579656 114.14245605 10.62818909 C112.82245605 12.27818909 111.50245605 13.92818909 110.14245605 15.62818909 C75.49245605 15.62818909 40.84245605 15.62818909 5.14245605 15.62818909 C5.14245605 97.46818909 5.14245605 179.30818909 5.14245605 263.62818909 C144.40245605 263.62818909 283.66245605 263.62818909 427.14245605 263.62818909 C427.14245605 181.78818909 427.14245605 99.94818909 427.14245605 15.62818909 C405.9657373 15.67459534 384.78901855 15.72100159 362.97058105 15.76881409 C349.59037142 15.78924142 336.21017133 15.808686 322.82995605 15.82350159 C315.80391401 15.83133339 308.77787232 15.83941541 301.75183105 15.84791565 C300.43088322 15.84949814 300.43088322 15.84949814 299.08324957 15.8511126 C284.85555789 15.86852235 270.62793069 15.90006447 256.40027729 15.93680027 C241.80502183 15.97417166 227.2098002 15.99641688 212.61449885 16.00454307 C203.60427392 16.01003875 194.59423118 16.02741261 185.58406231 16.05985495 C179.41020216 16.08095595 173.23643656 16.08739919 167.06254295 16.0821946 C163.49745323 16.07962589 159.93268246 16.08363583 156.36764908 16.10501099 C152.50659711 16.12799258 148.64596415 16.12016755 144.78485107 16.10920715 C143.65256364 16.12085852 142.52027621 16.13250988 141.35367703 16.14451432 C140.32159454 16.13655013 139.28951205 16.12858593 138.22615433 16.1203804 C136.88877932 16.12265872 136.88877932 16.12265872 135.52438664 16.12498307 C132.34433464 15.46172667 131.14277001 14.13562854 129.14245605 11.62818909 C128.40671945 7.78600903 128.73923846 6.22825408 130.92514706 2.97520351 C135.80473602 -0.5844377 140.2850854 -0.0537723 146.18190002 0.01345825 C147.4165827 0.007775 148.65126537 0.00209174 149.92336267 -0.00376374 C153.34813263 -0.01445173 156.77149782 -0.00269658 160.19613087 0.01854289 C163.89010631 0.03601888 167.58400699 0.02465626 171.27799988 0.01687622 C178.5131828 0.00619945 185.74807489 0.02215935 192.98321349 0.04701448 C201.40584515 0.07492777 209.82841771 0.07628742 218.25108796 0.07645749 C233.27686999 0.07764512 248.30251831 0.10262603 263.32824707 0.14112854 C277.91452641 0.17848089 292.5007085 0.19972449 307.08703613 0.20265198 C307.98553357 0.20283479 308.884031 0.2030176 309.80975563 0.20320595 C311.15515297 0.20347441 311.15515297 0.20347441 312.52773005 0.20374829 C314.33357338 0.2041137 316.13941672 0.20448607 317.94526005 0.20486546 C318.83580049 0.20505097 319.72634092 0.20523648 320.64386744 0.20542762 C334.53661447 0.20899664 348.42934646 0.22744672 362.32207822 0.2473587 C367.36038224 0.25438439 372.3986827 0.25916531 377.43699057 0.26232005 C385.42779241 0.26736607 393.41852652 0.27877594 401.40929348 0.30362035 C405.06139522 0.31485327 408.71343035 0.32295611 412.36555099 0.32248688 C416.3204264 0.32212261 420.27515387 0.33723947 424.22999573 0.35403442 C425.39000015 0.35161934 426.55000457 0.34920426 427.74516064 0.34671599 C428.8020268 0.35378158 429.85889297 0.36084717 430.94778538 0.36812687 C431.86096045 0.37007779 432.77413552 0.37202871 433.71498257 0.37403876 C436.35317138 0.65025045 437.92503317 1.18559607 440.14245605 2.62818909 C442.25282837 5.79374756 442.3930496 6.53783867 442.39693165 10.15320396 C442.40276384 11.08616023 442.40859604 12.0191165 442.41460496 12.98034418 C442.41082564 14.00707825 442.40704631 15.03381232 442.40315247 16.09165955 C442.40697801 17.18100347 442.41080356 18.2703474 442.41474503 19.39270175 C442.4251059 23.06157792 442.42107699 26.73029851 442.41711426 30.39918518 C442.42145904 33.022025 442.4266414 35.64486355 442.43260193 38.2677002 C442.4453682 44.6638439 442.44714019 51.05994567 442.44480167 57.45609997 C442.44302035 62.65431275 442.44476414 67.85251278 442.44902611 73.05072403 C442.4496213 73.7898954 442.45021649 74.52906676 442.45082971 75.29063726 C442.45204144 76.79216301 442.45325557 78.29368875 442.45447209 79.79521449 C442.46535524 93.88519057 442.46318158 107.97514274 442.45708724 122.06512018 C442.45191846 134.95906881 442.46317111 147.85294188 442.48218546 160.74687557 C442.5015515 173.98057707 442.50982197 187.21424282 442.50606221 200.44795859 C442.50414815 207.87997207 442.50665754 215.31192125 442.52077675 222.74392319 C442.53391819 229.73211539 442.53144726 236.72015373 442.51836586 243.70834541 C442.51599211 246.27666461 442.51876313 248.84499435 442.52698898 251.41330147 C442.53739053 254.91262936 442.52940841 258.4114424 442.51667786 261.91075134 C442.52405214 262.93302397 442.53142643 263.9552966 442.53902417 265.00854719 C442.47116783 273.84231208 442.47116783 273.84231208 439.14245605 277.62818909 C435.65311664 278.79130223 432.52917872 278.77142932 428.90001869 278.76520348 C428.15348235 278.7678553 427.406946 278.77050713 426.63778734 278.77323931 C424.11626994 278.78094743 421.59480112 278.78149206 419.07327271 278.78208923 C417.25520908 278.78610284 415.43714636 278.79054089 413.61908472 278.79536879 C408.60742243 278.80735111 403.59576977 278.81298655 398.58409595 278.81754994 C393.18522317 278.82349958 387.78636195 278.83511083 382.38749695 278.84584045 C369.34300958 278.87037631 356.29851838 278.88499189 343.25401503 278.89790052 C339.57186217 278.90161112 335.88970968 278.90558445 332.2075572 278.90965319 C309.35748958 278.9348847 286.50742139 278.95694469 263.65734291 278.96938133 C258.3633181 278.97231117 253.06929332 278.97527282 247.77526855 278.97828674 C246.4594155 278.97903279 245.14356244 278.97977884 243.78783505 278.9805475 C222.45505439 278.99321068 201.12237269 279.02644628 179.78962858 279.06808858 C157.90455873 279.11046015 136.01953153 279.1340707 114.13442075 279.1393019 C101.8398279 279.14272108 89.5453651 279.15453619 77.25081253 279.18740463 C66.78401606 279.21534047 56.31737629 279.22643289 45.85054542 279.21520917 C40.50712681 279.21000625 35.1640367 279.21301508 29.82066536 279.23767471 C24.93275385 279.26004492 20.04540914 279.25952315 15.15748851 279.24047084 C13.38562244 279.23765361 11.61371892 279.24336417 9.84191342 279.25828378 C7.43943673 279.27728329 5.0390035 279.26567585 2.6365757 279.24622154 C1.94305197 279.25907076 1.24952824 279.27191998 0.53498864 279.28515857 C-3.17723208 279.21876721 -4.80488149 278.66845299 -7.78660107 276.38873255 C-9.95967168 273.49205397 -10.48319947 272.38179714 -10.48674965 268.84146118 C-10.49978839 267.90103942 -10.51282712 266.96061766 -10.52626097 265.99169827 C-10.51510736 264.96689893 -10.50395375 263.94209959 -10.49246216 262.88624573 C-10.50026211 261.7911094 -10.50806206 260.69597307 -10.51609838 259.56765079 C-10.53607297 255.89087541 -10.52023125 252.21512876 -10.5045166 248.53834534 C-10.51129023 245.90535374 -10.52019192 243.27236689 -10.53106689 240.63938904 C-10.55330525 234.22605708 -10.54849563 227.81301762 -10.53400369 221.39967418 C-10.52271372 216.18766424 -10.52117948 210.97573631 -10.52662277 205.76371765 C-10.52738894 205.0220419 -10.5281551 204.28036615 -10.52894448 203.51621538 C-10.5305431 202.00953569 -10.53216417 200.50285601 -10.53380744 198.99617636 C-10.54806668 184.86655392 -10.53166954 170.73709365 -10.50480561 156.60749781 C-10.48246662 144.48247775 -10.4863467 132.35769702 -10.50939941 120.23268127 C-10.5361544 106.15378471 -10.54669337 92.0750303 -10.5313381 77.99611187 C-10.52974534 76.49496144 -10.52817349 74.99381099 -10.52662277 73.49266052 C-10.52585139 72.75405747 -10.52508002 72.01545442 -10.52428526 71.25446945 C-10.51996734 66.04845173 -10.52725677 60.84252415 -10.53902054 55.63652039 C-10.55450448 48.6301278 -10.54348755 41.62419533 -10.51454926 34.61784744 C-10.50792543 32.04308449 -10.50985805 29.46828357 -10.52086258 26.89353561 C-10.53447723 23.38521608 -10.517449 19.87835822 -10.49246216 16.37013245 C-10.50361577 15.34533311 -10.51476938 14.32053377 -10.52626097 13.26467991 C-10.46217175 8.64223039 -10.36470969 6.33858162 -7.62145805 2.49607944 C-4.72527849 0.53880231 -3.43877685 0.00245219 0 0 Z " fill="#030101" transform="translate(39.8575439453125,174.37181091308594)"/>
<path d="M0 0 C33.99 0 67.98 0 103 0 C103 0.33 103 0.66 103 1 C69.34 1 35.68 1 1 1 C1 78.88 1 156.76 1 237 C139.6 237 278.2 237 421 237 C421 159.12 421 81.24 421 1 C324.64 1 228.28 1 129 1 C129 0.67 129 0.34 129 0 C225.69 0 322.38 0 422 0 C422 81.84 422 163.68 422 248 C282.74 248 143.48 248 0 248 C0 166.16 0 84.32 0 0 Z " fill="#EFB700" transform="translate(45,190)"/>
<path d="M0 0 C1.15005555 0.48721358 2.3001111 0.97442716 3.48501682 1.47640479 C7.74738307 3.06605193 11.71570711 3.4213913 16.23973083 3.37752342 C17.43015501 3.38406391 17.43015501 3.38406391 18.64462817 3.39073652 C21.29638304 3.40166011 23.9476144 3.39128439 26.59936523 3.38095093 C28.52272781 3.38440863 30.4460884 3.38917395 32.36944485 3.39513266 C37.64911253 3.40765676 42.92861754 3.40146579 48.20828581 3.39217401 C53.90434083 3.38538967 59.60036778 3.3958617 65.29641724 3.40411377 C76.45277888 3.41745984 87.60908001 3.41456945 98.76544404 3.40587585 C107.83174273 3.39910316 116.89802445 3.39818079 125.96432495 3.4014473 C127.25424959 3.401907 128.54417422 3.40236669 129.87318748 3.40284032 C132.49357137 3.40379949 135.11395524 3.40477213 137.73433912 3.4057581 C161.61011054 3.41407059 185.48584756 3.4054474 209.3616135 3.38973031 C231.15417929 3.37549364 252.94669248 3.37676753 274.73925781 3.39111328 C299.2272806 3.40717956 323.71526962 3.41349056 348.20329762 3.40427649 C350.81409009 3.40332083 353.42488257 3.40237772 356.03567505 3.4014473 C357.32026483 3.40098447 358.60485462 3.40052164 359.92837137 3.40004479 C368.98471529 3.39745355 378.04104056 3.4018288 387.09738159 3.40888596 C398.13268394 3.41729612 409.16792226 3.41503095 420.20321727 3.39904372 C425.83454077 3.39115455 431.46575749 3.38808051 437.09708023 3.39799118 C442.25129909 3.40692506 447.40531209 3.40202664 452.55951226 3.38605852 C454.42481156 3.3827052 456.29012822 3.38441715 458.15541637 3.39168589 C460.69061461 3.40080794 463.22510767 3.39145222 465.76026917 3.37752342 C466.84675229 3.38805867 466.84675229 3.38805867 467.95518458 3.39880675 C473.27272715 3.34040985 477.17385839 2.04456361 482 0 C482.35957762 3.77556505 482.11727831 5.76995408 480.375 9.1875 C477.29439456 12.83558539 474.52164477 14.70373871 469.67508888 15.27314758 C466.80770678 15.38812344 463.95486688 15.40204609 461.08520508 15.38476562 C459.99674789 15.3901384 458.90829071 15.39551117 457.78684998 15.40104675 C455.42970872 15.41081205 453.07253156 15.41377269 450.71537209 15.41069031 C446.98794496 15.40621205 443.26099246 15.42021174 439.53361511 15.43908691 C430.95362107 15.47898032 422.37363742 15.49149563 413.79357147 15.50261688 C405.29408427 15.51395806 396.79478547 15.53689643 388.29538536 15.58000183 C384.61755268 15.59361849 380.94000945 15.58939355 377.26216125 15.58459473 C375.01697413 15.59393049 372.77179025 15.60409808 370.52661133 15.61523438 C369.49954071 15.60908615 368.47247009 15.60293793 367.41427612 15.59660339 C366.00751869 15.60890739 366.00751869 15.60890739 364.57234192 15.62145996 C363.34928958 15.62252872 363.34928958 15.62252872 362.10152912 15.62361908 C359.4402328 16.10025352 358.59646458 16.84132462 357 19 C356.67 20.32 356.34 21.64 356 23 C351.05 23 346.1 23 341 23 C340.34 21.35 339.68 19.7 339 18 C335.61969986 15.74646657 334.49784686 15.74990049 330.5407362 15.74946022 C328.82872124 15.74196217 328.82872124 15.74196217 327.08212012 15.73431265 C325.82261127 15.73897587 324.56310242 15.74363908 323.26542664 15.7484436 C321.91830226 15.74630609 320.57117905 15.74328144 319.22405845 15.73944318 C315.51407198 15.73138159 311.80418595 15.73572016 308.09419978 15.74196196 C304.09613756 15.7464855 300.09809482 15.73946089 296.10003662 15.73365784 C289.16906229 15.72501459 282.23811348 15.72321918 275.30713463 15.72560501 C265.27949737 15.7286984 255.25191672 15.71707867 245.22429369 15.70105521 C228.94746713 15.67507625 212.67064053 15.65506638 196.39379883 15.64160156 C195.41913816 15.64079119 194.4444775 15.63998082 193.44028167 15.6391459 C179.60954619 15.62792521 165.77881474 15.62264365 151.94807533 15.61975877 C150.97432424 15.61955478 150.00057315 15.61935079 148.99731445 15.61914062 C148.02474749 15.61894069 147.05218052 15.61874075 146.05014183 15.61853476 C129.83882933 15.61480333 113.62757812 15.5957277 97.4162963 15.56404626 C87.41322591 15.54511583 77.41031256 15.5391799 67.40722916 15.54986344 C60.55308928 15.55617683 53.6990621 15.5481582 46.84494694 15.52880932 C42.88874547 15.51811363 38.93281756 15.51399877 34.97661781 15.52728081 C31.35495992 15.53931775 27.73381535 15.53300326 24.11220215 15.51208882 C22.18116911 15.50573952 20.25010235 15.51911013 18.3191101 15.53317416 C11.94579883 15.47652595 7.78591647 15.4096517 3 11 C0.07324013 7.29277083 -0.3259948 4.67259219 0 0 Z " fill="#D16523" transform="translate(15,453)"/>
<path d="M0 0 C3.97356718 0.72983887 5.65191724 2.48813964 8.0625 5.5625 C10.39723579 9.26342961 12.47735365 13.09173233 14.5625 16.9375 C15.79635681 19.17736886 17.03074494 21.41694511 18.265625 23.65625 C18.89146484 24.79707031 19.51730469 25.93789063 20.16210938 27.11328125 C23.17250605 32.57716669 26.24071828 38.00796057 29.3125 43.4375 C29.86099609 44.41122559 30.40949219 45.38495117 30.97460938 46.38818359 C31.48314453 47.28875488 31.99167969 48.18932617 32.515625 49.1171875 C32.96067383 49.90593262 33.40572266 50.69467773 33.86425781 51.50732422 C34.86858413 53.22990346 35.95643969 54.90340953 37.0625 56.5625 C37.06614563 55.91992249 37.06979126 55.27734497 37.07354736 54.61529541 C37.11533407 47.93163796 37.18465289 41.24866967 37.27001953 34.56542969 C37.29825799 32.07070811 37.31945812 29.57589658 37.33349609 27.08105469 C37.35488499 23.49627534 37.40151708 19.91258082 37.453125 16.328125 C37.45435364 15.21133362 37.45558228 14.09454224 37.45684814 12.94390869 C37.47656677 11.90313171 37.4962854 10.86235474 37.51660156 9.79003906 C37.52992523 8.41770111 37.52992523 8.41770111 37.54351807 7.01763916 C38.22769243 3.78102695 39.48181909 2.57604108 42.0625 0.5625 C45.86613869 0.01912304 48.03904363 -0.14325119 51.24890137 2.07019043 C53.79429674 5.56816024 53.62260777 8.77496001 53.58007812 12.93945312 C53.5870874 13.7821727 53.59409668 14.62489227 53.60131836 15.4931488 C53.61891445 18.27701836 53.60727009 21.05987022 53.59375 23.84375 C53.59644445 25.77901403 53.60032649 27.71427674 53.60534668 29.64953613 C53.61124391 33.70480238 53.6026715 37.75971614 53.58398438 41.81494141 C53.56119474 47.01392932 53.57431661 52.21209129 53.59827423 57.41104889 C53.6127261 61.40706611 53.60812902 65.40288741 53.59776306 69.39891052 C53.59509409 71.31587319 53.59837152 73.23285362 53.60768127 75.14979553 C53.61783682 77.82885883 53.60236027 80.50658334 53.58007812 83.18554688 C53.58817505 83.97839584 53.59627197 84.77124481 53.60461426 85.58811951 C53.55038924 89.10599187 53.34916541 91.17063344 51.24499512 94.04699707 C47.9700697 96.32107275 45.94938906 96.24441036 42.0625 95.5625 C36.76332925 90.31767971 33.58880792 83.62361876 30.0625 77.125 C29.07562951 75.32367174 28.08639417 73.52365531 27.09706116 71.72367859 C26.42390601 70.49859108 25.7514953 69.27309423 25.07981873 68.04719543 C21.6500948 61.7917616 18.1439934 55.58065412 14.625 49.375 C13.62360455 47.60840523 12.62222173 45.8418033 11.62084961 44.07519531 C10.76807821 42.57095685 9.91529907 41.06672277 9.0625 39.5625 C9.05885437 40.19032883 9.05520874 40.81815765 9.05145264 41.4650116 C9.0096242 48.00284772 8.94027589 54.53998205 8.85498047 61.07739258 C8.82676453 63.51677428 8.80555315 65.95624752 8.79150391 68.39575195 C8.7700839 71.90363448 8.72343565 75.41041571 8.671875 78.91796875 C8.67064636 80.00772507 8.66941772 81.09748138 8.66815186 82.22026062 C8.52258502 89.75512858 8.52258502 89.75512858 6.24316406 93.75512695 C4.0625 95.5625 4.0625 95.5625 0.5625 96.125 C-3.56984675 95.46087284 -4.50096569 94.90562122 -6.9375 91.5625 C-7.33207777 88.64399003 -7.48487311 86.10306529 -7.45507812 83.18554688 C-7.4620874 82.3428273 -7.46909668 81.50010773 -7.47631836 80.6318512 C-7.49391445 77.84798164 -7.48227009 75.06512978 -7.46875 72.28125 C-7.47144445 70.34598597 -7.47532649 68.41072326 -7.48034668 66.47546387 C-7.48624391 62.42019762 -7.4776715 58.36528386 -7.45898438 54.31005859 C-7.43619474 49.11107068 -7.44931661 43.91290871 -7.47327423 38.71395111 C-7.4877261 34.71793389 -7.48312902 30.72211259 -7.47276306 26.72608948 C-7.47009409 24.80912681 -7.47337152 22.89214638 -7.48268127 20.97520447 C-7.49283682 18.29614117 -7.47736027 15.61841666 -7.45507812 12.93945312 C-7.46317505 12.14660416 -7.47127197 11.35375519 -7.47961426 10.53688049 C-7.42504498 6.99667451 -7.228578 4.95428773 -5.08874512 2.07409668 C-2.9375 0.5625 -2.9375 0.5625 0 0 Z " fill="#020200" transform="translate(296.9375,260.4375)"/>
<path d="M0 0 C1.11640869 -0.0236412 1.11640869 -0.0236412 2.25537109 -0.04776001 C3.04508301 -0.03763885 3.83479492 -0.0275177 4.6484375 -0.01708984 C5.4729541 -0.02187347 6.2974707 -0.0266571 7.14697266 -0.03158569 C8.88511063 -0.03497857 10.62331294 -0.02581887 12.36132812 -0.00488281 C15.01577575 0.02189536 17.66599575 -0.0046473 20.3203125 -0.03662109 C22.01303013 -0.03331688 23.70574513 -0.0269104 25.3984375 -0.01708984 C26.58300537 -0.03227158 26.58300537 -0.03227158 27.79150391 -0.04776001 C31.98247573 0.04098851 33.60870192 0.33024241 37.0546875 2.96191406 C39.0234375 5.64697266 39.0234375 5.64697266 39.1484375 9.27197266 C38.0234375 12.64697266 38.0234375 12.64697266 35.83911133 14.33959961 C32.5851564 15.85047524 30.42178108 15.99276099 26.84765625 15.93994141 C25.11225586 15.92543945 25.11225586 15.92543945 23.34179688 15.91064453 C22.14361328 15.88550781 20.94542969 15.86037109 19.7109375 15.83447266 C17.8846582 15.81416992 17.8846582 15.81416992 16.02148438 15.79345703 C13.02194557 15.75816834 10.02263484 15.70436339 7.0234375 15.64697266 C7.0234375 23.89697266 7.0234375 32.14697266 7.0234375 40.64697266 C8.91449219 40.58896484 10.80554688 40.53095703 12.75390625 40.47119141 C15.23955866 40.4242923 17.72523776 40.37879232 20.2109375 40.33447266 C21.45681641 40.29257812 22.70269531 40.25068359 23.98632812 40.20751953 C34.29462413 40.06933862 34.29462413 40.06933862 37.3828125 42.93994141 C39.0234375 45.64697266 39.0234375 45.64697266 39.0859375 49.27197266 C37.89880205 53.0428735 37.37940731 53.76161614 34.0234375 55.64697266 C31.09082031 55.98754883 31.09082031 55.98754883 27.7265625 55.93994141 C25.91865234 55.92543945 25.91865234 55.92543945 24.07421875 55.91064453 C22.81996094 55.88550781 21.56570312 55.86037109 20.2734375 55.83447266 C19.00371094 55.8209375 17.73398438 55.80740234 16.42578125 55.79345703 C13.29148566 55.75810783 10.15740812 55.70430139 7.0234375 55.64697266 C7.0234375 63.89697266 7.0234375 72.14697266 7.0234375 80.64697266 C8.85390625 80.62376953 10.684375 80.60056641 12.5703125 80.57666016 C14.97135009 80.55790205 17.37239209 80.53970189 19.7734375 80.52197266 C20.98 80.50521484 22.1865625 80.48845703 23.4296875 80.47119141 C24.58984375 80.46474609 25.75 80.45830078 26.9453125 80.45166016 C28.01362305 80.44118652 29.08193359 80.43071289 30.18261719 80.41992188 C33.06386798 80.65020404 34.64247185 81.04345158 37.0234375 82.64697266 C39.0234375 85.64697266 39.0234375 85.64697266 38.8359375 89.14697266 C38.01942787 92.66424489 37.75693324 93.53967913 35.0234375 95.64697266 C31.9870828 95.96984932 29.16021072 96.11499989 26.12109375 96.11572266 C25.24698349 96.12333618 24.37287323 96.13094971 23.47227478 96.13879395 C21.62387956 96.14959755 19.77542328 96.15244699 17.92700195 96.14794922 C15.09938676 96.14697728 12.27448856 96.18858474 9.44726562 96.23291016 C7.65104733 96.23811749 5.85481959 96.24080534 4.05859375 96.24072266 C3.21369888 96.25711792 2.36880402 96.27351318 1.49830627 96.29040527 C0.7074614 96.28109985 -0.08338348 96.27179443 -0.89819336 96.26220703 C-1.93719032 96.2652887 -1.93719032 96.2652887 -2.99717712 96.26843262 C-6.24656738 95.24823414 -7.25559595 93.53040964 -8.9765625 90.64697266 C-9.36886135 87.75459879 -9.53452318 85.24451153 -9.51000977 82.35595703 C-9.51862534 81.53420486 -9.52724091 80.7124527 -9.53611755 79.86579895 C-9.55876822 77.15711722 -9.55204101 74.44947076 -9.54296875 71.74072266 C-9.54820447 69.85412285 -9.55448075 67.96752567 -9.56175232 66.08093262 C-9.57215463 62.1300015 -9.56759707 58.1794306 -9.55297852 54.22851562 C-9.53578427 49.1674034 -9.55929458 44.10742576 -9.59446812 39.04644012 C-9.61643542 35.15159595 -9.61500238 31.2570236 -9.6067028 27.36213684 C-9.60588305 25.49622859 -9.61275116 23.63030042 -9.62747383 21.76445007 C-9.64490937 19.15492107 -9.63038745 16.54743533 -9.60766602 13.93798828 C-9.61935822 13.16900711 -9.63105042 12.40002594 -9.64309692 11.60774231 C-9.57341026 7.67098662 -9.11293042 5.82422543 -6.68565369 2.66921997 C-4.1000677 0.73916522 -3.12774414 0.01917462 0 0 Z " fill="#080700" transform="translate(96.9765625,260.35302734375)"/>
<path d="M0 0 C3.5304745 2.81037076 4.72627993 5.33474756 5.89453125 9.63671875 C6.20672607 10.75900879 6.5189209 11.88129883 6.84057617 13.03759766 C7.16131104 14.24206543 7.4820459 15.4465332 7.8125 16.6875 C8.15579346 17.93321777 8.49908691 19.17893555 8.8527832 20.46240234 C9.56371743 23.04413864 10.27026804 25.62660538 10.96972656 28.21142578 C12.22116257 32.81327032 13.51116334 37.40363623 14.80517578 41.99365234 C17.90267146 52.98659078 20.94976838 63.9938647 24 75 C26.52316469 66.5178719 29.01631202 58.02951518 31.375 49.5 C31.57496582 48.77748047 31.77493164 48.05496094 31.98095703 47.31054688 C32.93455301 43.86140126 33.88649319 40.41180139 34.83740234 36.96191406 C35.7427426 33.68209747 36.65240041 30.40349879 37.5625 27.125 C37.98378174 25.59262695 37.98378174 25.59262695 38.41357422 24.02929688 C39.86711196 18.80297989 41.39110852 13.60190091 43.02734375 8.4296875 C43.332771 7.46015137 43.63819824 6.49061523 43.95288086 5.49169922 C45.01660896 2.96047773 45.81103541 1.63391651 48 0 C51.78316327 -0.48149351 54.10213389 -0.47137971 57.5 1.3125 C60.39645047 6.50197376 58.73888955 12.28315997 57.23828125 17.80078125 C56.58650102 19.87712755 55.91830391 21.94835612 55.23828125 24.015625 C53.60057326 29.11549336 52.32623347 34.31241718 51 39.5 C49.18095202 46.57213386 47.2922774 53.58595724 45.06640625 60.54296875 C44.17501741 63.43263587 43.33911169 66.32570941 42.52734375 69.23828125 C42.26501953 70.17655762 42.00269531 71.11483398 41.73242188 72.08154297 C41.21445276 73.94247745 40.70119379 75.80473137 40.19335938 77.66845703 C36.98412078 89.16105879 36.98412078 89.16105879 32.4375 93.375 C27.81835142 95.55859751 24.02424363 95.79244168 19 95 C14.30399601 92.86545273 12.6652102 90.78425704 10.7565918 86.08081055 C9.33699274 82.17656958 8.23247301 78.18939565 7.125 74.1875 C6.865979 73.26606201 6.60695801 72.34462402 6.34008789 71.39526367 C5.55517354 68.5981799 4.77691764 65.79931409 4 63 C3.55878517 61.41921739 3.11739043 59.83848499 2.67578125 58.2578125 C1.2347822 53.09001421 -0.19581566 47.91936 -1.62060547 42.74707031 C-2.03791088 41.23226144 -2.45579919 39.71761302 -2.87426758 38.203125 C-3.28842673 36.70355539 -3.70104759 35.20356 -4.11206055 33.703125 C-5.16401376 29.8915186 -6.26738696 26.10579133 -7.4609375 22.3359375 C-7.81575195 21.19717163 -7.81575195 21.19717163 -8.17773438 20.03540039 C-8.62767363 18.60098271 -9.08910911 17.17009685 -9.56445312 15.74389648 C-10.99890749 11.14055026 -11.05341309 7.69354056 -10 3 C-7.67133148 -1.01048467 -4.26353269 -0.52359173 0 0 Z " fill="#040400" transform="translate(156,261)"/>
<path d="M0 0 C1.15139465 -0.01891296 1.15139465 -0.01891296 2.3260498 -0.03820801 C3.14593384 -0.03011108 3.96581787 -0.02201416 4.81054688 -0.01367188 C6.08629578 -0.01941223 6.08629578 -0.01941223 7.38781738 -0.02526855 C9.18319891 -0.02798646 10.97862012 -0.0206337 12.77392578 -0.00390625 C15.5201048 0.01750645 18.26366785 -0.00371059 21.00976562 -0.02929688 C22.75586514 -0.02665358 24.50196303 -0.02152855 26.24804688 -0.01367188 C27.06793091 -0.0217688 27.88781494 -0.02986572 28.73254395 -0.03820801 C32.51919592 0.02399205 34.42568872 0.07343133 37.54296875 2.3671875 C39.02929688 4.51757812 39.02929688 4.51757812 39.59179688 7.45507812 C39.01862069 10.575704 38.29806988 12.29577881 35.98852539 14.48999023 C31.3045247 16.94668293 25.35286492 16.00278605 20.21679688 15.83007812 C18.95158203 15.80751953 17.68636719 15.78496094 16.3828125 15.76171875 C13.26446708 15.70288204 10.14673098 15.61320494 7.02929688 15.51757812 C7.02929688 23.76757812 7.02929688 32.01757812 7.02929688 40.51757812 C8.92035156 40.45957031 10.81140625 40.4015625 12.75976562 40.34179688 C15.24541804 40.29489777 17.73109713 40.24939778 20.21679688 40.20507812 C21.46267578 40.16318359 22.70855469 40.12128906 23.9921875 40.078125 C34.3004835 39.93994409 34.3004835 39.93994409 37.38867188 42.81054688 C39.02929688 45.51757812 39.02929688 45.51757812 39.09179688 49.14257812 C37.90466143 52.91347897 37.38526668 53.63222161 34.02929688 55.51757812 C31.09667969 55.8581543 31.09667969 55.8581543 27.73242188 55.81054688 C25.92451172 55.79604492 25.92451172 55.79604492 24.08007812 55.78125 C22.82582031 55.75611328 21.5715625 55.73097656 20.27929688 55.70507812 C19.00957031 55.69154297 17.73984375 55.67800781 16.43164062 55.6640625 C13.29734504 55.6287133 10.16326749 55.57490686 7.02929688 55.51757812 C7.02929688 63.76757812 7.02929688 72.01757812 7.02929688 80.51757812 C8.92035156 80.45957031 10.81140625 80.4015625 12.75976562 80.34179688 C15.24541804 80.29489777 17.73109713 80.24939778 20.21679688 80.20507812 C21.46267578 80.16318359 22.70855469 80.12128906 23.9921875 80.078125 C34.29895074 79.93996463 34.29895074 79.93996463 37.35742188 82.84570312 C39.40346641 86.11555 39.75443391 87.73075137 39.02929688 91.51757812 C37.37749225 93.93316755 36.07575207 95.31048324 33.14181519 95.89111328 C30.75037403 96.04834193 28.3906888 96.07179509 25.99414062 96.04882812 C24.68154015 96.05456848 24.68154015 96.05456848 23.34242249 96.0604248 C21.49576667 96.06314276 19.64907229 96.05578966 17.80249023 96.0390625 C14.97292565 96.01762456 12.14589262 96.03888029 9.31640625 96.06445312 C7.52147876 96.06181033 5.72655285 96.05668635 3.93164062 96.04882812 C3.08472153 96.05692505 2.23780243 96.06502197 1.36521912 96.07336426 C-4.44261678 95.9803979 -4.44261678 95.9803979 -6.69226074 94.00878906 C-8.51965398 90.44787612 -8.39696365 87.05195312 -8.37475586 83.140625 C-8.38161911 82.29790543 -8.38848236 81.45518585 -8.39555359 80.58692932 C-8.41384485 77.80322389 -8.4099812 75.02008072 -8.40429688 72.23632812 C-8.40885721 70.30106421 -8.41416234 68.36580192 -8.42018127 66.43054199 C-8.42911668 62.37533995 -8.42668393 58.32033481 -8.41674805 54.26513672 C-8.40525155 49.06617834 -8.42547812 43.86789847 -8.45466518 38.66902924 C-8.47300184 34.67303139 -8.4727399 30.67719695 -8.46702766 26.6811676 C-8.46687417 24.76419624 -8.47294147 22.847214 -8.48531914 20.93028259 C-8.50018143 18.2512642 -8.48958802 15.57350981 -8.47241211 12.89453125 C-8.48208008 12.10168228 -8.49174805 11.30883331 -8.50170898 10.49195862 C-8.45468987 6.99330767 -8.24933526 4.90684245 -6.18751526 2.02636719 C-3.84612471 0.43278855 -2.78856281 0.01320801 0 0 Z " fill="#040300" transform="translate(234.970703125,260.482421875)"/>
<path d="M0 0 C1.71714455 -0.0237545 1.71714455 -0.0237545 3.46897888 -0.04798889 C4.70132767 -0.04302902 5.93367645 -0.03806915 7.20336914 -0.03295898 C8.47322159 -0.03915756 9.74307404 -0.04535614 11.05140686 -0.05174255 C13.7376294 -0.05884861 16.42235614 -0.05759688 19.10839844 -0.04296875 C22.54316415 -0.02579035 25.97625548 -0.04926336 29.41083431 -0.08445835 C32.69586559 -0.11175722 35.98075644 -0.10169403 39.26586914 -0.09545898 C41.11135597 -0.1153463 41.11135597 -0.1153463 42.99412537 -0.13563538 C52.48311529 -0.03203315 52.48311529 -0.03203315 55.61181641 2.84619141 C57.30102539 5.53344727 57.30102539 5.53344727 57.36352539 9.15844727 C56.18337268 12.90716764 55.59822663 13.61342632 52.30102539 15.53344727 C49.91918945 15.87402344 49.91918945 15.87402344 47.31665039 15.82641602 C46.38208008 15.81674805 45.44750977 15.80708008 44.48461914 15.79711914 C43.5165332 15.77198242 42.54844727 15.7468457 41.55102539 15.72094727 C40.5674707 15.70741211 39.58391602 15.69387695 38.57055664 15.67993164 C36.14682124 15.64463452 33.72420394 15.59532781 31.30102539 15.53344727 C31.30990784 16.46194992 31.31879028 17.39045258 31.32794189 18.34709167 C31.40812299 27.10158915 31.46900776 35.85596313 31.50827408 44.61074352 C31.5291401 49.11158614 31.55743951 53.61212511 31.6027832 58.11279297 C31.64627647 62.45702914 31.67016991 66.80097342 31.68053436 71.14541054 C31.68791952 72.80202135 31.70234119 74.45861637 31.72394562 76.11510277 C31.75302691 78.43743662 31.75697958 80.75856775 31.75512695 83.08105469 C31.77669861 84.1060482 31.77669861 84.1060482 31.79870605 85.15174866 C31.76888948 88.61096295 31.32460895 90.49525473 29.49139404 93.46406555 C27.30102539 95.53344727 27.30102539 95.53344727 23.80102539 96.09594727 C19.69304199 95.43573565 18.75277772 94.82469467 16.30102539 91.53344727 C15.92647558 88.91226397 15.79291343 86.71774864 15.84692383 84.1027832 C15.84633972 83.36092773 15.84575562 82.61907227 15.84515381 81.85473633 C15.84793514 79.40861825 15.87902753 76.9637268 15.91040039 74.51782227 C15.91786265 72.8196072 15.92355566 71.1213835 15.92755127 69.42315674 C15.94280888 64.95788717 15.9820915 60.49313973 16.02636719 56.02807617 C16.06731732 51.47004255 16.08556172 46.9119244 16.10571289 42.35375977 C16.14858586 33.41342645 16.21683854 24.47348031 16.30102539 15.53344727 C15.69105713 15.55963135 15.08108887 15.58581543 14.45263672 15.61279297 C11.67319781 15.71710445 8.894171 15.78187709 6.11352539 15.84594727 C4.67396484 15.90878906 4.67396484 15.90878906 3.20532227 15.97290039 C-3.93940462 16.09651158 -3.93940462 16.09651158 -7.83959961 13.20532227 C-9.69897461 10.53344727 -9.69897461 10.53344727 -10.26147461 7.47094727 C-9.1317442 1.57124403 -5.65459608 0.03482755 0 0 Z " fill="#020200" transform="translate(370.698974609375,260.466552734375)"/>
<path d="M0 0 C5.11280275 1.84060899 8.10397971 4.40043837 11 9 C11.84339438 13.43975531 11.3195715 17.05903947 9.875 21.3125 C7.50626666 24.70768445 5.76367773 26.22080689 2 28 C-3.02023393 28.79997224 -6.82265121 28.55656488 -11.4375 26.375 C-15.36664148 22.73335668 -17.12217703 19.32997533 -17.4375 14 C-17.25027669 9.73456459 -15.81006484 7.25375928 -13 4 C-8.62840367 0.30842977 -5.69599218 -0.71199902 0 0 Z " fill="#FA2D68" transform="translate(261,44)"/>
<path d="M0 0 C0.185625 0.598125 0.37125 1.19625 0.5625 1.8125 C2.67236221 5.02315988 5.40944887 6.05799229 9 7 C16.12562333 7.94497514 21.63045333 6.18477333 28 3 C27.6173991 8.64336328 27.22146091 11.89915226 23 16 C18.51801725 18.71403646 14.09833689 18.64433958 9 18 C5.20146328 16.2043281 3.47988876 14.70383685 1.125 11.25 C-0.26971534 7.22082236 -0.21943008 4.24231479 0 0 Z " fill="#EE155C" transform="translate(244,54)"/>
</svg>
